<?xml version="1.0" encoding="UTF-8"?>
<svg id="Layer_1" xmlns="http://www.w3.org/2000/svg" version="1.1" viewBox="0 0 500 500">
  <!-- Generator: Adobe Illustrator 29.6.0, SVG Export Plug-In . SVG Version: 2.1.1 Build 207)  -->
  <defs>
    <style>
      .st0 {
        font-family: Montserrat-Bold, Montserrat;
        font-size: 123.04px;
        font-weight: 700;
      }

      .st1 {
        fill: #333;
      }
    </style>
  </defs>
  <text class="st0" transform="translate(634.17 145.63)"><tspan x="0" y="0">VAO</tspan></text>
  <g>
    <path class="st1" d="M283.29,14.8h-65.89L88.58,303.43l127.45,181.77h67.52l127.87-181.77L283.29,14.8ZM271.66,133.09h-43.71l21.93-52.72,21.78,52.72ZM252.27,434.69l-95.17-131.26,49.78-119.68h85.7l49.43,119.68-89.75,131.26Z"/>
    <path class="st1" d="M278.12,225.86c-8.97-3.48-18.81-5.23-29.52-5.23s-20.39,1.74-29.42,5.23c-9.04,3.48-16.91,8.39-23.62,14.71-6.71,6.32-11.9,13.75-15.58,22.26-3.68,8.52-5.52,17.81-5.52,27.88s1.84,19.36,5.52,27.88c3.68,8.52,8.84,15.94,15.49,22.26,6.65,6.32,14.52,11.23,23.62,14.71,9.1,3.48,19,5.23,29.71,5.23s20.36-1.74,29.33-5.23c8.97-3.48,16.78-8.35,23.42-14.61,6.65-6.26,11.84-13.68,15.58-22.26,3.74-8.58,5.61-17.91,5.61-27.97s-1.87-19.52-5.61-27.97c-3.75-8.45-8.94-15.84-15.58-22.17-6.65-6.32-14.45-11.23-23.42-14.71ZM287.8,308.33c-2.13,5.29-5.13,9.87-9,13.75-3.87,3.87-8.36,6.84-13.45,8.9-5.1,2.07-10.68,3.1-16.75,3.1s-11.68-1.03-16.84-3.1c-5.16-2.06-9.65-5.03-13.45-8.9-3.81-3.87-6.78-8.48-8.91-13.84-2.13-5.35-3.19-11.19-3.19-17.52s1.06-12.32,3.19-17.62c2.13-5.29,5.13-9.87,9-13.74,3.87-3.87,8.35-6.84,13.45-8.91,5.1-2.06,10.68-3.1,16.75-3.1s11.68,1.03,16.84,3.1c5.16,2.07,9.65,5.03,13.45,8.91,3.81,3.87,6.78,8.45,8.91,13.74,2.13,5.29,3.19,11.16,3.19,17.62s-1.06,12.33-3.19,17.62Z"/>
    <path class="st1" d="M263.3,276.79c-1.85-1.76-4.01-3.12-6.5-4.09-2.49-.97-5.22-1.45-8.2-1.45s-5.66.48-8.17,1.45c-2.51.97-4.7,2.33-6.56,4.09-1.86,1.76-3.31,3.82-4.33,6.18-1.02,2.37-1.53,4.95-1.53,7.74s.51,5.38,1.53,7.74c1.02,2.37,2.45,4.43,4.3,6.18,1.85,1.76,4.03,3.12,6.56,4.09,2.53.97,5.28,1.45,8.25,1.45s5.65-.48,8.14-1.45c2.49-.97,4.66-2.32,6.5-4.06,1.85-1.74,3.29-3.8,4.33-6.18,1.04-2.38,1.56-4.97,1.56-7.77s-.52-5.42-1.56-7.77c-1.04-2.35-2.48-4.4-4.33-6.15ZM259.48,295.6c-.59,1.47-1.42,2.74-2.5,3.82-1.08,1.08-2.32,1.9-3.74,2.47-1.42.57-2.97.86-4.65.86s-3.24-.29-4.68-.86c-1.43-.57-2.68-1.4-3.74-2.47-1.06-1.08-1.88-2.36-2.47-3.84-.59-1.49-.89-3.11-.89-4.86s.3-3.42.89-4.89c.59-1.47,1.42-2.74,2.5-3.82,1.08-1.08,2.32-1.9,3.74-2.47,1.42-.57,2.97-.86,4.65-.86s3.24.29,4.68.86c1.43.57,2.68,1.4,3.74,2.47,1.06,1.07,1.88,2.35,2.47,3.82.59,1.47.89,3.1.89,4.89s-.3,3.42-.89,4.89Z"/>
  </g>
</svg>